<svg width="22" height="22" viewBox="0 0 22 22" fill="none" xmlns="http://www.w3.org/2000/svg">
<path d="M14.0698 22H7.93023C2.37395 22 0 19.626 0 14.0698V7.93023C0 2.37395 2.37395 0 7.93023 0H14.0698C19.626 0 22 2.37395 22 7.93023V14.0698C22 19.626 19.626 22 14.0698 22ZM7.93023 1.53488C3.21302 1.53488 1.53488 3.21302 1.53488 7.93023V14.0698C1.53488 18.787 3.21302 20.4651 7.93023 20.4651H14.0698C18.787 20.4651 20.4651 18.787 20.4651 14.0698V7.93023C20.4651 3.21302 18.787 1.53488 14.0698 1.53488H7.93023Z" fill="#3D3E43"/>
</svg>
