<svg width="54" height="114" viewBox="0 0 54 114" fill="none" xmlns="http://www.w3.org/2000/svg">
<path d="M43.5204 25.5127H51.982V12.558C52.1479 9.73459 50.3892 3.68908 42.0272 2.09465C34.4616 1.29744 31.2428 5.74854 30.5792 8.07373M30.5792 8.07373C33.0679 9.56852 38.1448 13.156 38.543 15.5476M30.5792 8.07373C27.9246 7.40941 21.5203 7.27658 17.1402 12.0598C12.7601 16.8431 12.3288 21.6928 12.6606 23.5197C9.84001 25.3467 4.59706 30.7943 6.18982 37.9692M6.18982 37.9692C13.1582 34.4814 27.4931 31.7908 29.0858 48.9308M6.18982 37.9692C3.70112 40.7926 -0.181249 48.5322 4.19886 56.9029C3.70124 57.4012 -1.7739 67.3663 6.68767 74.3419C6.18996 76.335 0.714824 87.7949 14.6515 93.7739C14.6515 95.2687 18.1357 105.732 29.5837 102.743M29.5837 102.743C38.7421 100.351 39.0408 93.7739 38.0453 90.7844M29.5837 102.743C30.4133 107.227 34.8598 115.099 46.0091 110.715C51.1856 108.722 52.1479 104.569 51.982 102.743L51.982 57.8995M51.982 26.011L51.982 57.8995M27.095 18.5372C27.2634 21.0284 29.0428 25.9113 34.8136 25.5127M38.0453 37.9692C40.2022 37.637 44.4163 38.4674 44.0182 44.4465C43.5204 48.9308 38.543 49.4291 38.0453 48.9308M15.647 48.4326C15.8129 51.7543 18.1357 58.3977 26.0995 58.3977C34.0634 58.3977 46.6728 58.0655 51.982 57.8995M22.6154 67.8646C19.9607 68.3628 14.8506 70.5552 15.647 75.3384M31.5747 67.8646H43.5204M24.1086 86.3001C23.9427 83.9749 24.8054 79.3245 29.5837 79.3245C34.362 79.3245 46.175 79.3245 51.4842 79.3245" stroke="#9195F6" stroke-width="4"/>
</svg>
