<svg width="54" height="114" viewBox="0 0 54 114" fill="none" xmlns="http://www.w3.org/2000/svg">
<path d="M10.4783 25.5127H2.01674V12.558C1.85083 9.73459 3.60951 3.68908 11.9715 2.09465C19.5372 1.29744 22.7559 5.74854 23.4195 8.07373M23.4195 8.07373C20.9308 9.56852 15.8539 13.156 15.4557 15.5476M23.4195 8.07373C26.0742 7.40941 32.4784 7.27658 36.8585 12.0598C41.2386 16.8431 41.67 21.6928 41.3382 23.5197C44.1587 25.3467 49.4017 30.7943 47.8089 37.9692M47.8089 37.9692C40.8406 34.4814 26.5057 31.7908 24.9129 48.9308M47.8089 37.9692C50.2976 40.7926 54.18 48.5322 49.7999 56.9029C50.2975 57.4012 55.7726 67.3663 47.3111 74.3419C47.8088 76.335 53.2839 87.7949 39.3472 93.7739C39.3472 95.2687 35.863 105.732 24.415 102.743M24.415 102.743C15.2566 100.351 14.958 93.7739 15.9535 90.7844M24.415 102.743C23.5855 107.227 19.139 115.099 7.98962 110.715C2.81313 108.722 1.85084 104.569 2.01675 102.743L2.01675 57.8995M2.01674 26.011L2.01675 57.8995M26.9037 18.5372C26.7354 21.0284 24.956 25.9113 19.1851 25.5127M15.9535 37.9692C13.7966 37.637 9.58239 38.4674 9.98058 44.4465C10.4783 48.9308 15.4557 49.4291 15.9535 48.9308M38.3517 48.4326C38.1858 51.7543 35.863 58.3977 27.8992 58.3977C19.9354 58.3977 7.32597 58.0655 2.01675 57.8995M31.3834 67.8646C34.038 68.3628 39.1481 70.5552 38.3517 75.3384M22.4241 67.8646H10.4783M29.8902 86.3001C30.0561 83.9749 29.1933 79.3245 24.415 79.3245C19.6367 79.3245 7.82371 79.3245 2.51449 79.3245" stroke="#FF7ED4" stroke-width="4"/>
</svg>
